<?xml version="1.0" encoding="UTF-8"?>
<svg width="600" height="400" xmlns="http://www.w3.org/2000/svg">
  <defs>
    <linearGradient id="bg" x1="0%" y1="0%" x2="100%" y2="100%">
      <stop offset="0%" style="stop-color:rgb(182,90,9);stop-opacity:1" />
      <stop offset="50%" style="stop-color:rgb(212,120,39);stop-opacity:1" />
      <stop offset="100%" style="stop-color:rgb(252,160,79);stop-opacity:1" />
    </linearGradient>
    <filter id="shadow">
      <feDropShadow dx="0" dy="4" stdDeviation="6" flood-opacity="0.3"/>
    </filter>
    <clipPath id="avatarClip">
      <circle cx="80" cy="80" r="50"/>
    </clipPath>
  </defs>

  <!-- Background -->
  <rect width="600" height="400" fill="url(#bg)" rx="15"/>

  <!-- Main Card -->
  <rect x="20" y="20" width="560" height="360" fill="#ffffff" fill-opacity="0.95" rx="15" filter="url(#shadow)"/>

  <!-- Header with Avatar (vectorized, no image links – one single SVG) -->
  <circle cx="80" cy="80" r="55" fill="url(#bg)" opacity="0.3"/>
  <g clip-path="url(#avatarClip)" transform="translate(30,30) translate(4.228855721393032,0) scale(0.4975124378109453)"><path d="M 88 1.049 C 86.075 1.528, 80.783 2.597, 76.240 3.424 C 61.275 6.150, 49.514 12.125, 37.711 23 C 24.238 35.413, 20.577 42.148, 24.173 47.905 C 25.179 49.517, 24.679 50.541, 20.639 55.141 C 14.962 61.606, 5.823 79.796, 3.376 89.500 C 0.905 99.303, 0.933 120.922, 3.431 130.416 C 10.580 157.593, 28.171 179.046, 53.064 190.947 C 102.912 214.778, 162.741 188.944, 178.894 136.614 C 187.009 110.321, 181.790 80.683, 165.180 58.738 C 158.524 49.944, 158.674 50.326, 160.964 48.036 C 164.286 44.714, 163.544 40.834, 158.250 33.842 C 145.860 17.479, 125.656 5.913, 102.500 1.926 C 92.872 0.269, 91.473 0.184, 88 1.049 M 78.643 14.768 C 78.382 15.191, 79.930 15.369, 82.084 15.163 C 84.238 14.958, 86 14.612, 86 14.395 C 86 13.650, 79.118 13.999, 78.643 14.768 M 104.193 14.688 C 107.554 15.076, 107.923 15.425, 108.298 18.566 C 108.705 21.977, 108.708 21.973, 108.605 18.259 C 108.502 14.579, 108.416 14.498, 104.500 14.381 L 100.500 14.262 104.193 14.688 M 92.409 16.843 C 91.909 17.204, 91.420 17.966, 91.321 18.536 C 91.071 19.990, 94.849 19.835, 95.412 18.368 C 95.945 16.980, 93.757 15.868, 92.409 16.843 M 78.158 25 C 78.158 26.375, 78.385 26.938, 78.662 26.250 C 78.940 25.563, 78.940 24.438, 78.662 23.750 C 78.385 23.063, 78.158 23.625, 78.158 25 M 79.009 29.518 C 78.979 32.798, 88.308 42.026, 91.618 41.991 C 92.103 41.985, 90.603 40.844, 88.286 39.455 C 85.968 38.066, 82.934 35.032, 81.545 32.714 C 80.156 30.397, 79.015 28.958, 79.009 29.518 M 101.156 36.711 C 96.873 41.171, 97.278 41.696, 101.842 37.601 C 103.811 35.835, 106.707 31.790, 105.785 32.094 C 105.628 32.146, 103.545 34.224, 101.156 36.711 M 93.507 41.989 C 93.157 42.555, 93.558 42.723, 94.448 42.382 C 96.180 41.717, 96.497 41, 95.059 41 C 94.541 41, 93.843 41.445, 93.507 41.989 M 71 46.861 C 62.510 48.151, 70.387 49.257, 82.864 48.526 C 96.218 47.744, 119.448 49.260, 134.046 51.867 C 141.734 53.239, 144 53.359, 144 52.393 C 144 51.167, 140.440 50.233, 127 47.930 C 119.494 46.645, 77.679 45.846, 71 46.861 M 146.666 52.427 C 145.964 54.258, 148.522 56.582, 149.500 55.001 C 150.324 53.667, 149.416 51, 148.138 51 C 147.630 51, 146.968 51.642, 146.666 52.427 M 75.856 71.039 C 72.202 71.465, 66.672 72.341, 63.568 72.986 L 57.924 74.157 58.212 82.829 L 58.500 91.500 65 92.211 C 68.575 92.602, 72.513 93.173, 73.750 93.480 C 75.909 94.015, 76 93.776, 76 87.584 C 76 84.034, 76.441 79.970, 76.980 78.553 C 78.343 74.967, 82.302 73.298, 86.070 74.721 C 88.892 75.786, 89 75.719, 89 72.913 C 89 69.621, 88.547 69.557, 75.856 71.039 M 97.750 70.569 C 97.338 70.989, 97 72.399, 97 73.702 C 97 75.734, 97.275 75.923, 98.934 75.035 C 101.868 73.465, 104.455 73.783, 107.365 76.073 C 109.821 78.005, 110 78.690, 110 86.189 C 110 94.046, 110.052 94.219, 112.250 93.622 C 113.487 93.286, 117.537 92.719, 121.250 92.362 L 128 91.713 128 82.924 C 128 73.025, 128.687 73.807, 118.500 72.096 C 109.023 70.503, 98.570 69.734, 97.750 70.569 M 148.368 99.415 C 151.835 101.336, 156 102.197, 156 100.993 C 156 99.664, 154.724 99.132, 149.905 98.450 L 145.500 97.827 148.368 99.415 M 75 100.500 C 79.627 102.282, 81.117 102.282, 78 100.500 C 76.625 99.714, 74.600 99.089, 73.500 99.112 C 72.190 99.138, 72.708 99.617, 75 100.500 M 97 122.834 C 97 130.155, 104.560 138.051, 111.484 137.961 L 114.500 137.922 111.450 136.593 C 107.696 134.958, 103.532 130.143, 102.088 125.767 C 101.492 123.962, 100.104 121.921, 99.002 121.234 C 97.175 120.092, 97 120.232, 97 122.834 M 86.245 122.250 C 85.695 122.938, 84.906 124.625, 84.491 126 C 83.348 129.792, 80.078 133.981, 76.611 136.095 C 73.560 137.956, 73.548 137.993, 76 137.993 C 81.985 137.993, 88.989 130.586, 88.996 124.250 C 89 120.867, 87.957 120.109, 86.245 122.250" stroke="none" fill-rule="evenodd" fill="rgb(182,90,9)" fill-opacity="1"/><path d="M 90 1.009 C 88.625 1.471, 83.225 2.593, 78 3.502 C 60.922 6.473, 47.570 13.469, 34.633 26.224 C 26.371 34.370, 23.009 39.250, 23.004 43.104 C 23 46.016, 27.070 51, 29.452 51 C 30.617 51, 31 52.099, 31 55.441 C 31 57.884, 31.439 60.153, 31.976 60.485 C 32.512 60.817, 34.508 63.431, 36.410 66.294 C 40.922 73.086, 44.943 75.436, 51.782 75.276 L 57.078 75.152 56.789 83.326 L 56.500 91.500 46 92.112 C 35.355 92.732, 24.938 94.466, 21.750 96.147 C 19.207 97.489, 19.364 105.376, 22 108.727 C 23.178 110.225, 24 112.784, 24 114.953 C 24 120.673, 26.784 128.684, 30.073 132.430 C 33.356 136.170, 39.489 138.687, 47.652 139.647 C 51.027 140.043, 52.681 140.667, 52.388 141.431 C 51.608 143.463, 46.329 145.999, 42.846 146.015 C 40.318 146.027, 39.867 146.268, 41 147 C 43.403 148.553, 47.244 148.149, 50.826 145.965 L 54.151 143.937 59.627 148.942 C 65.478 154.289, 74.737 159.241, 82.028 160.921 C 88.798 162.481, 101.920 162.213, 108.068 160.388 C 115.240 158.261, 122.112 154.718, 126.441 150.918 L 129.955 147.832 132.789 149.850 C 136.516 152.504, 139.990 153.309, 142.964 152.209 C 145.141 151.404, 144.940 151.255, 140.942 150.719 C 137.557 150.265, 135.728 149.280, 133.251 146.576 C 128.306 141.181, 128.820 140.391, 137.750 139.656 C 153.585 138.352, 159.800 132.490, 162.120 116.667 C 162.787 112.113, 163.808 108.627, 164.559 108.339 C 166.099 107.748, 167.422 100.904, 166.536 98.112 C 165.686 95.435, 154.800 92.963, 140.750 92.257 L 130 91.717 129.999 83.108 L 129.999 74.500 134.749 74.792 C 141.052 75.180, 144.743 72.796, 149.929 64.987 C 152.816 60.641, 154.006 57.788, 154.022 55.179 C 154.040 52.023, 154.500 51.287, 157.261 50 C 159.031 49.175, 161.144 47.293, 161.957 45.817 C 163.276 43.422, 163.256 42.761, 161.768 39.640 C 160.852 37.718, 157.053 32.913, 153.326 28.963 C 139.608 14.421, 124.750 6.479, 103.939 2.563 C 99.847 1.793, 95.600 0.939, 94.500 0.666 C 93.400 0.392, 91.375 0.546, 90 1.009 M 90.071 12.097 C 88.735 12.631, 85.360 13.394, 82.571 13.792 C 77.750 14.481, 77.484 14.678, 77.185 17.785 C 77.011 19.583, 77.390 23.561, 78.026 26.625 C 79.347 32.991, 83.831 38.743, 89.607 41.484 C 93.887 43.515, 97.020 42.564, 101.958 37.737 C 106.692 33.108, 108.271 29.301, 108.793 21.250 L 109.263 14 106.290 14 C 104.656 14, 101.109 13.330, 98.409 12.511 C 92.781 10.804, 93.251 10.827, 90.071 12.097 M 91.527 13.245 C 90.538 13.799, 87.427 14.532, 84.614 14.876 L 79.500 15.500 79.218 21 C 78.854 28.105, 81.896 34.359, 87.665 38.366 C 92.585 41.784, 95.227 41.496, 100.371 36.979 C 105.117 32.812, 107 28.301, 107 21.099 L 107 15 103.468 15 C 101.525 15, 98.449 14.379, 96.631 13.619 C 94.301 12.646, 92.795 12.535, 91.527 13.245 M 91.858 16.362 C 89.816 17.855, 90.921 20.482, 93.625 20.566 C 95.183 20.614, 95.750 20.030, 95.750 18.375 C 95.750 15.683, 94.014 14.785, 91.858 16.362 M 81.216 25.879 L 81.300 28.837 88.791 28.500 C 93.621 28.282, 96.581 27.690, 97.126 26.831 C 97.754 25.839, 98.003 26.010, 98.103 27.500 C 98.194 28.855, 98.483 28.532, 99 26.500 C 99.617 24.075, 99.786 23.931, 99.882 25.750 C 100.030 28.568, 102 28.746, 102 25.941 C 102 23.196, 103.980 24.504, 104.070 27.309 C 104.138 29.421, 104.171 29.428, 105 27.500 C 106.633 23.699, 106.156 23.327, 99.500 23.217 C 93.469 23.117, 92.993 23.267, 92.900 25.304 C 92.806 27.381, 92.765 27.392, 92.150 25.500 C 91.629 23.897, 90.470 23.442, 86.316 23.210 C 81.157 22.922, 81.132 22.935, 81.216 25.879 M 88 26 C 88 26.550, 88.675 27, 89.500 27 C 90.325 27, 91 26.550, 91 26 C 91 25.450, 90.325 25, 89.500 25 C 88.675 25, 88 25.450, 88 26 M 72 46.019 C 62.305 46.930, 43.814 49.750, 41.360 50.692 C 40.612 50.979, 40 51.890, 40 52.715 C 40 53.777, 40.665 54.050, 42.269 53.647 C 54.526 50.571, 65.932 49.633, 91.500 49.598 C 115.069 49.565, 120.139 49.845, 131.396 51.801 C 138.489 53.033, 144.508 53.826, 144.770 53.563 C 146.066 52.268, 143.758 50.218, 140.337 49.626 C 118.302 45.814, 90.047 44.323, 72 46.019 M 35.278 52.122 C 33.921 53.479, 34.715 56, 36.500 56 C 37.978 56, 39.279 53.261, 38.444 51.910 C 37.692 50.692, 36.637 50.763, 35.278 52.122 M 146 53.031 C 146 55.449, 148.860 56.844, 150.008 54.986 C 151.184 53.085, 150.077 51, 147.893 51 C 146.657 51, 146 51.705, 146 53.031 M 109.083 67.360 C 109.313 67.558, 112.425 67.965, 116 68.265 C 119.900 68.592, 121.500 68.488, 120 68.005 C 117.531 67.209, 108.276 66.663, 109.083 67.360 M 71.732 71.067 C 68.560 71.543, 64.172 72.415, 61.982 73.005 L 58 74.077 58 82.910 L 58 91.742 63.250 92.393 C 66.138 92.751, 70.412 93.310, 72.750 93.636 L 77 94.227 77 86.269 C 77 79.928, 77.356 78.004, 78.750 76.807 C 81.689 74.283, 83.989 73.943, 87.131 75.568 L 90.136 77.122 89.818 73.811 L 89.500 70.500 83.500 70.351 C 80.200 70.269, 74.904 70.592, 71.732 71.067 M 91 83.500 C 91 96.333, 91.099 97, 93 97 C 94.888 97, 95 96.333, 95 85.082 C 95 78.527, 95.273 72.452, 95.607 71.582 C 96.065 70.389, 95.573 70, 93.607 70 L 91 70 91 83.500 M 97 73.273 L 97 76.847 99.889 75.406 C 103.305 73.701, 107.283 74.791, 108.939 77.886 C 109.523 78.977, 110 83.099, 110 87.048 L 110 94.227 114.250 93.666 C 116.588 93.357, 120.879 92.812, 123.786 92.454 L 129.072 91.802 128.786 82.690 L 128.500 73.577 122.500 72.327 C 119.200 71.639, 112.112 70.766, 106.750 70.388 L 97 69.699 97 73.273 M 65.250 94.689 C 66.213 94.941, 67.787 94.941, 68.750 94.689 C 69.713 94.438, 68.925 94.232, 67 94.232 C 65.075 94.232, 64.287 94.438, 65.250 94.689 M 145 95.075 C 149.125 95.519, 155.378 96.560, 158.895 97.387 C 162.413 98.214, 164.860 98.460, 164.333 97.933 C 162.897 96.497, 148.550 93.981, 142.662 94.133 C 137.962 94.254, 138.171 94.338, 145 95.075 M 74.282 96.092 C 76.363 96.581, 79.452 97.700, 81.147 98.576 C 83.067 99.569, 84.584 99.816, 85.168 99.232 C 86.163 98.237, 75.936 94.919, 72.434 95.100 C 71.370 95.156, 72.202 95.602, 74.282 96.092 M 53 97.596 C 53 97.923, 53.942 99.514, 55.093 101.131 C 56.813 103.546, 56.961 104.342, 55.924 105.592 C 55.230 106.428, 55.075 107.015, 55.581 106.895 C 56.086 106.775, 57.764 107.199, 59.309 107.836 C 64.112 109.818, 69.851 110.369, 71.495 109.004 C 72.616 108.074, 73 108.057, 73 108.938 C 73 109.693, 74.355 110.009, 76.750 109.810 C 80.255 109.520, 80.520 109.268, 80.799 105.949 C 81.186 101.339, 78.959 99.320, 72.044 98.008 C 66.283 96.916, 53 96.628, 53 97.596 M 128 98.878 C 128 99.910, 128.685 101.324, 129.523 102.019 C 130.401 102.748, 130.796 104.068, 130.455 105.140 C 129.774 107.289, 131.918 108.349, 139.861 109.793 C 143.413 110.439, 145.089 110.383, 145.464 109.607 C 145.836 108.839, 146.179 108.883, 146.583 109.750 C 147.702 112.147, 151.965 111.183, 153.215 108.250 C 153.859 106.737, 155.029 104.729, 155.815 103.787 C 156.600 102.845, 156.994 101.427, 156.690 100.635 C 155.900 98.575, 147.344 97, 136.951 97 C 128.861 97, 128 97.181, 128 98.878 M 91.250 99.716 C 92.763 99.945, 95.237 99.945, 96.750 99.716 C 98.263 99.487, 97.025 99.300, 94 99.300 C 90.975 99.300, 89.737 99.487, 91.250 99.716 M 91 118.662 C 91 126.084, 90.644 127.931, 88.514 131.566 C 85.210 137.205, 79.028 140.278, 71.756 139.899 C 61.566 139.367, 56 139.905, 56 141.422 C 56 143.409, 64.407 150.394, 71.093 153.964 C 77.552 157.412, 87.388 159.964, 94.303 159.985 C 105.291 160.019, 119.836 154.487, 126.795 147.627 C 128.683 145.765, 128.919 144.916, 128.124 142.826 C 126.998 139.866, 122.343 138.717, 115.354 139.675 C 109.806 140.436, 102.961 137.930, 99.567 133.897 C 96.332 130.052, 95.012 125.093, 95.006 116.750 C 95.001 110.669, 94.802 110, 93 110 C 91.154 110, 91 110.667, 91 118.662 M 28.564 122.500 C 29.867 129.296, 34.685 134.118, 41.500 135.446 C 43.824 135.898, 43.605 135.683, 40.530 134.491 C 35.290 132.460, 31.413 128.621, 29.525 123.592 C 28.409 120.620, 28.146 120.321, 28.564 122.500 M 86.862 121.018 C 85.961 121.544, 84.913 123.218, 84.534 124.737 C 83.336 129.534, 79.934 133.993, 75.899 136.051 C 73.755 137.145, 72 138.307, 72 138.632 C 72 139.760, 79.517 137.822, 82.679 135.878 C 86.191 133.720, 90 126.855, 90 122.684 C 90 119.809, 89.441 119.512, 86.862 121.018 M 97 123.802 C 97 129.016, 100.413 133.943, 105.970 136.750 C 110.330 138.952, 115.046 139.740, 114.953 138.250 C 114.928 137.838, 113.032 136.579, 110.741 135.453 C 107.530 133.874, 105.877 132.081, 103.526 127.626 C 101.849 124.447, 99.694 121.408, 98.738 120.873 C 97.218 120.023, 97 120.390, 97 123.802 M 106.017 125.715 C 105.963 129.602, 116.698 137.098, 120.259 135.659 C 120.975 135.370, 120.743 135.125, 119.710 135.079 C 116.349 134.931, 110.255 131.093, 108.143 127.794 C 106.983 125.982, 106.026 125.047, 106.017 125.715 M 46.750 136.662 C 47.438 136.940, 48.563 136.940, 49.250 136.662 C 49.938 136.385, 49.375 136.158, 48 136.158 C 46.625 136.158, 46.063 136.385, 46.750 136.662 M 123.250 136.689 C 124.213 136.941, 125.787 136.941, 126.750 136.689 C 127.713 136.438, 126.925 136.232, 125 136.232 C 123.075 136.232, 122.287 136.438, 123.250 136.689" stroke="none" fill-rule="evenodd" fill="rgb(212,120,39)" fill-opacity="1"/><path d="M 90 1.893 C 90 2.384, 90.632 3.028, 91.404 3.325 C 93.325 4.062, 97.106 2.980, 96.430 1.886 C 95.713 0.727, 90 0.733, 90 1.893 M 55.510 12.015 C 56.109 12.985, 55.868 13.164, 54.612 12.681 C 53.484 12.249, 53.133 12.406, 53.587 13.141 C 54.005 13.818, 53.730 14.067, 52.889 13.773 C 49.280 12.508, 27.522 32.113, 24.495 39.357 C 22.627 43.829, 23.788 47.322, 27.838 49.416 C 30.195 50.635, 30.893 51.803, 31.439 55.441 C 31.811 57.923, 32.545 60.219, 33.069 60.543 C 33.594 60.867, 35.605 63.606, 37.539 66.629 C 41.737 73.191, 46.166 75.523, 52.721 74.625 L 57 74.038 57 82.969 L 57 91.900 51.250 92.261 L 45.500 92.622 52 92.813 L 58.500 93.004 58.184 83.002 C 58.010 77.501, 58.122 73, 58.433 73 C 58.744 73, 62.937 72.347, 67.750 71.549 C 72.562 70.750, 80.854 69.849, 86.176 69.546 C 94.829 69.054, 95.901 69.181, 96.310 70.748 C 96.741 72.395, 96.775 72.396, 96.884 70.763 C 96.987 69.218, 97.859 69.091, 104.750 69.614 C 109.013 69.937, 116.846 71.057, 122.157 72.101 C 127.468 73.145, 133.934 74, 136.525 74 C 140.691 74, 141.655 73.556, 144.868 70.159 C 149.927 64.810, 153.158 59.180, 153.771 54.647 C 154.193 51.518, 154.831 50.606, 157.167 49.792 C 158.748 49.241, 160.483 47.967, 161.021 46.961 C 162.534 44.133, 162.190 43.810, 160 46 C 157.160 48.840, 156.011 48.487, 155.930 44.750 C 155.891 42.962, 155.473 40.600, 155 39.500 C 154.188 37.611, 154.137 37.628, 154.070 39.809 C 153.985 42.614, 152 41.714, 152 38.870 C 152 37.763, 151.266 36.123, 150.368 35.225 C 148.859 33.716, 148.791 33.778, 149.469 36.047 C 150.148 38.319, 149.977 38.260, 147.157 35.250 C 145.483 33.462, 143.525 31.943, 142.806 31.872 C 142.088 31.802, 140.488 31.639, 139.250 31.509 C 136.957 31.269, 136.609 32.168, 137.820 35.202 C 138.457 36.798, 145.346 41.272, 149.250 42.626 C 150.213 42.960, 151 43.836, 151 44.572 C 151 45.663, 150.210 45.629, 146.750 44.391 C 139.485 41.792, 124.933 39.049, 114.750 38.360 C 109.388 37.996, 105 37.553, 105 37.374 C 105 37.195, 105.898 35.575, 106.996 33.774 C 108.094 31.973, 108.994 29.867, 108.996 29.093 C 108.998 28.319, 107.953 29.669, 106.674 32.093 C 104.040 37.083, 96.957 43, 93.618 43 C 92.393 43, 89.299 41.673, 86.742 40.052 C 80.782 36.272, 77.856 30.717, 76.968 21.500 L 76.293 14.500 76.147 20.168 C 75.939 28.199, 75.353 29.407, 72.814 27.041 C 71.692 25.996, 67.917 24.668, 64.256 24.031 C 60.653 23.403, 55.870 21.954, 53.627 20.810 L 49.549 18.729 53.332 15.459 C 55.930 13.213, 56.735 11.954, 55.903 11.440 C 55.076 10.929, 54.951 11.112, 55.510 12.015 M 88.500 14.506 C 86.300 15.243, 83.263 15.881, 81.750 15.923 C 79.217 15.994, 79 16.318, 79 20.035 C 79 23.551, 79.225 23.956, 80.750 23.180 C 81.713 22.690, 88.013 22.337, 94.750 22.395 L 107 22.500 107 19.465 C 107 16.610, 106.688 16.365, 101.750 15.330 C 98.862 14.725, 95.600 13.990, 94.500 13.698 C 93.400 13.405, 90.700 13.769, 88.500 14.506 M 92 15 C 92 15.550, 91.235 16, 90.300 16 C 89.044 16, 88.893 16.293, 89.722 17.122 C 90.339 17.739, 90.635 18.789, 90.379 19.455 C 90.078 20.240, 90.985 20.667, 92.957 20.667 C 94.631 20.667, 96 20.328, 96 19.915 C 96 19.502, 96.273 18.452, 96.607 17.582 C 97.005 16.544, 96.662 16, 95.607 16 C 94.723 16, 94 15.550, 94 15 C 94 14.450, 93.550 14, 93 14 C 92.450 14, 92 14.450, 92 15 M 109.195 24.500 C 109.215 26.150, 109.439 26.704, 109.693 25.731 C 109.947 24.758, 109.930 23.408, 109.656 22.731 C 109.382 22.054, 109.175 22.850, 109.195 24.500 M 102.150 26.250 C 101.969 29.561, 100.312 29.900, 99.706 26.750 L 99.272 24.500 99.136 26.826 C 99.015 28.902, 98.545 29.133, 94.750 28.983 C 86.248 28.646, 81 29.021, 81 29.965 C 81 31.591, 87.125 38.013, 90.184 39.595 C 92.846 40.972, 93.373 40.918, 96.947 38.910 C 100.735 36.781, 104.001 33.205, 105.267 29.801 C 105.706 28.618, 105.480 28.262, 104.523 28.630 C 103.603 28.982, 103.008 28.220, 102.724 26.329 L 102.300 23.500 102.150 26.250 M 150 26.313 C 150 26.485, 151.463 27.948, 153.250 29.563 L 156.500 32.500 153.563 29.250 C 150.825 26.221, 150 25.540, 150 26.313 M 72.053 33.436 C 71.398 34.225, 69.548 35.160, 67.942 35.513 C 62.056 36.806, 63.976 38, 71.941 38 C 76.373 38, 80 37.759, 80 37.465 C 80 37.170, 79.273 35.820, 78.385 34.465 C 76.579 31.709, 73.854 31.266, 72.053 33.436 M 95.500 35 C 95.151 35.565, 95.970 36, 97.382 36 C 98.757 36, 100.160 35.550, 100.500 35 C 100.849 34.435, 100.030 34, 98.618 34 C 97.243 34, 95.840 34.450, 95.500 35 M 100.496 41.593 L 97.500 43.990 100.500 44.154 C 102.150 44.244, 95.175 44.646, 85 45.046 C 67.978 45.717, 41.618 49.095, 39.792 50.840 C 39.402 51.212, 39.455 52.118, 39.909 52.853 C 40.594 53.962, 42.330 53.922, 50.117 52.616 C 62.616 50.522, 82.944 48.965, 95.395 49.150 C 104.294 49.282, 103.544 49.396, 89.109 50.113 C 80.095 50.561, 72.220 51.154, 71.609 51.432 C 70.999 51.710, 76.125 51.679, 83 51.364 C 98.033 50.675, 122.721 52.379, 135.794 55.009 C 141.030 56.062, 145.680 56.697, 146.129 56.421 C 146.577 56.144, 148.043 56.637, 149.386 57.517 C 151.692 59.028, 151.865 59.001, 152.489 57.036 C 153.700 53.219, 152.127 49.431, 148.640 47.768 C 140.973 44.112, 125.830 41.008, 108.996 39.642 C 104.297 39.261, 103.055 39.546, 100.496 41.593 M 76.500 41.061 C 78.700 41.507, 81.850 42.198, 83.500 42.597 C 86.214 43.253, 86.369 43.164, 85.128 41.661 C 84.118 40.439, 82.267 40.033, 78.128 40.125 C 72.523 40.250, 72.517 40.254, 76.500 41.061 M 153 44.941 C 153 46.009, 153.394 47.125, 153.875 47.423 C 154.356 47.720, 154.750 46.847, 154.750 45.482 C 154.750 44.117, 154.356 43, 153.875 43 C 153.394 43, 153 43.873, 153 44.941 M 131.813 47.683 C 132.534 47.972, 133.397 47.936, 133.729 47.604 C 134.061 47.272, 133.471 47.036, 132.417 47.079 C 131.252 47.127, 131.015 47.364, 131.813 47.683 M 137.813 48.683 C 138.534 48.972, 139.397 48.936, 139.729 48.604 C 140.061 48.272, 139.471 48.036, 138.417 48.079 C 137.252 48.127, 137.015 48.364, 137.813 48.683 M 147 49.050 C 147 49.594, 145.988 49.870, 144.750 49.665 C 143.512 49.460, 143.063 49.484, 143.750 49.719 C 144.438 49.954, 145 51.066, 145 52.189 C 145 54.073, 144.558 54.187, 139.250 53.664 C 133.243 53.073, 133.233 53.068, 143.750 55.515 C 145.615 55.949, 146 55.618, 146 53.578 C 146 50.216, 147.709 49.434, 150.209 51.652 C 152.255 53.468, 152.272 53.463, 151.173 51.368 C 149.971 49.074, 147 47.425, 147 49.050 M 111.250 50.716 C 112.763 50.945, 115.237 50.945, 116.750 50.716 C 118.263 50.487, 117.025 50.300, 114 50.300 C 110.975 50.300, 109.737 50.487, 111.250 50.716 M 34.364 52.493 C 34.018 53.396, 34.214 54.614, 34.800 55.200 C 36.324 56.724, 39.210 55.331, 38.812 53.265 C 38.369 50.963, 35.165 50.407, 34.364 52.493 M 121.762 51.707 C 123.006 51.946, 124.806 51.937, 125.762 51.687 C 126.718 51.437, 125.700 51.241, 123.500 51.252 C 121.300 51.263, 120.518 51.468, 121.762 51.707 M 129.269 52.693 C 130.242 52.947, 131.592 52.930, 132.269 52.656 C 132.946 52.382, 132.150 52.175, 130.500 52.195 C 128.850 52.215, 128.296 52.439, 129.269 52.693 M 87.333 56.072 C 88.355 58.779, 88.256 59.285, 86.497 60.322 C 84.714 61.374, 84.983 61.560, 89 62.060 L 93.500 62.620 87 63.508 C 81.631 64.242, 81.022 64.501, 83.500 64.995 C 85.730 65.439, 84.574 65.768, 79 66.275 C 74.875 66.650, 69.475 67.600, 67 68.386 L 62.500 69.816 67.500 69.158 C 70.250 68.796, 82.175 68.528, 94 68.562 C 112.313 68.615, 117.036 68.955, 125.860 70.854 C 137.572 73.374, 140.825 72.932, 145.213 68.227 C 148.334 64.880, 150.383 61.050, 149.516 60.183 C 149.161 59.828, 146.688 59.529, 144.020 59.519 C 141.351 59.508, 139.243 59.088, 139.334 58.584 C 139.728 56.412, 114.804 53.077, 97.837 53.031 L 86.174 53 87.333 56.072 M 79 77 C 77.332 78.668, 77 80.333, 77 87.025 C 77 94.808, 77.081 95.080, 79.680 96.069 C 81.155 96.629, 84.305 97.354, 86.680 97.680 L 91 98.272 90.992 87.886 C 90.984 77.590, 90.961 77.489, 88.293 76.250 C 84.425 74.454, 81.294 74.706, 79 77 M 98.250 76.220 C 96.132 77.242, 96 77.911, 96 87.653 C 96 97.508, 96.100 98, 98.107 98 C 99.617 98, 100.042 98.448, 99.607 99.582 C 99.273 100.452, 99 102.477, 99 104.082 C 99 108.011, 96.153 108.017, 95.368 104.089 C 94.761 101.057, 92.858 100.039, 87.750 100.014 C 85.330 100.002, 84.989 100.390, 84.910 103.250 L 84.820 106.500 83.884 103.263 C 82.734 99.279, 79.407 97.434, 70.883 96.051 C 61.497 94.528, 40.391 94.767, 31.338 96.500 C 21.008 98.476, 19.819 98.221, 28.500 95.891 C 34.955 94.158, 35.111 94.057, 30.500 94.589 C 22.484 95.516, 20.550 96.838, 20.199 101.635 C 19.984 104.570, 20.415 106.270, 21.699 107.549 C 22.799 108.645, 23.952 112.211, 24.661 116.708 C 26.317 127.205, 29.410 132.886, 34.964 135.631 C 37.420 136.844, 41.470 138.116, 43.964 138.456 C 46.459 138.797, 49.769 139.326, 51.319 139.633 C 54.079 140.178, 54.100 140.232, 52.319 142.231 C 51.319 143.354, 49.150 144.869, 47.500 145.597 C 45.041 146.683, 44.881 146.929, 46.615 146.961 C 47.778 146.982, 49.935 146.053, 51.407 144.895 L 54.084 142.789 59.504 147.916 C 66.193 154.241, 76.785 159.440, 86.301 161.068 C 99.626 163.348, 114.163 159.647, 125.498 151.089 L 130.579 147.253 133.540 149.621 C 135.168 150.924, 137.625 151.954, 139 151.909 C 141.410 151.831, 141.396 151.797, 138.619 150.966 C 134.913 149.856, 131.373 146.510, 130.129 142.940 L 129.148 140.125 134.824 139.507 C 143.502 138.563, 149.341 137.079, 152.901 134.914 C 157.168 132.319, 160.875 124.139, 161.677 115.553 C 162.147 110.527, 162.748 108.670, 164.149 107.920 C 165.628 107.128, 165.964 105.883, 165.820 101.715 L 165.640 96.500 165.262 101.311 C 164.905 105.868, 164.743 106.105, 162.193 105.811 C 159.980 105.555, 159.445 104.934, 159.192 102.324 C 158.776 98.030, 157.496 97.207, 149.422 96.040 C 134.741 93.918, 112.375 95.203, 105.923 98.540 C 104.236 99.412, 102.877 99.611, 102.523 99.037 C 102.198 98.511, 104.051 97.463, 106.641 96.707 C 109.405 95.901, 110.865 95.034, 110.175 94.608 C 109.438 94.153, 109 90.981, 109 86.096 C 109 79.823, 108.645 77.988, 107.171 76.655 C 105.105 74.785, 101.582 74.614, 98.250 76.220 M 130.250 92.716 C 131.762 92.945, 134.238 92.945, 135.750 92.716 C 137.262 92.487, 136.025 92.300, 133 92.300 C 129.975 92.300, 128.738 92.487, 130.250 92.716 M 38.264 93.718 C 39.784 93.947, 42.034 93.941, 43.264 93.704 C 44.494 93.467, 43.250 93.279, 40.500 93.286 C 37.750 93.294, 36.744 93.488, 38.264 93.718 M 66.750 93.662 C 67.438 93.940, 68.563 93.940, 69.250 93.662 C 69.938 93.385, 69.375 93.158, 68 93.158 C 66.625 93.158, 66.063 93.385, 66.750 93.662 M 118.762 93.707 C 120.006 93.946, 121.806 93.937, 122.762 93.687 C 123.718 93.437, 122.700 93.241, 120.500 93.252 C 118.300 93.263, 117.518 93.468, 118.762 93.707 M 146.750 93.662 C 147.438 93.940, 148.563 93.940, 149.250 93.662 C 149.938 93.385, 149.375 93.158, 148 93.158 C 146.625 93.158, 146.063 93.385, 146.750 93.662 M 112.750 94.662 C 113.438 94.940, 114.563 94.940, 115.250 94.662 C 115.938 94.385, 115.375 94.158, 114 94.158 C 112.625 94.158, 112.063 94.385, 112.750 94.662 M 50 96.598 C 48.075 96.815, 43.652 97.259, 40.171 97.584 C 36.691 97.910, 34.033 98.366, 34.265 98.599 C 35.327 99.660, 53.391 103.787, 54.729 103.274 C 55.989 102.790, 56.043 103.052, 55.061 104.886 C 53.495 107.812, 54.610 110.901, 57.651 112.057 C 61.697 113.596, 70.969 113.243, 71.629 111.526 C 72.127 110.227, 72.369 110.227, 73.669 111.526 C 77.515 115.372, 82.748 110.798, 81.586 104.605 C 80.817 100.509, 79.728 99.517, 74.500 98.149 C 69.908 96.948, 55.175 96.015, 50 96.598 M 125 96.623 C 117.453 97.575, 110.828 99.223, 111.643 99.946 C 112.114 100.363, 114.750 101.273, 117.500 101.967 C 127.376 104.461, 129 105.263, 129 107.644 C 129 110.946, 132.664 113, 138.556 113 C 141.367 113, 144.005 112.662, 144.418 112.250 C 144.832 111.838, 146.787 111.500, 148.764 111.500 C 152.051 111.500, 152.573 111.085, 154.864 106.654 C 157.725 101.119, 157.172 99.110, 152.423 97.791 C 148.902 96.814, 129.904 96.005, 125 96.623 M 26.556 111.500 C 27.151 121.896, 28.435 126.287, 32.101 130.462 C 36.460 135.427, 43.266 137.462, 55.500 137.460 C 68.726 137.458, 77.052 134.509, 80.144 128.731 C 80.946 127.233, 80.018 127.685, 77.014 130.256 C 71.605 134.886, 64.762 136.417, 52.366 135.768 C 45.627 135.416, 41.996 134.693, 38.518 133.009 C 31.473 129.598, 30.400 127.344, 27.090 109 C 26.137 103.720, 26.116 103.820, 26.556 111.500 M 103.451 113.737 C 104.227 131.592, 111.230 137.489, 131.500 137.355 C 143.268 137.278, 151.348 134.752, 155.458 129.867 C 159.305 125.296, 158.501 124.735, 154.227 129.008 C 149.725 133.510, 145.372 134.945, 133.945 135.694 C 118.560 136.703, 108.657 131.866, 106.014 122.052 C 105.373 119.671, 104.454 114.974, 103.971 111.612 C 103.108 105.600, 103.099 105.635, 103.451 113.737 M 160.232 111 C 160.232 112.925, 160.438 113.713, 160.689 112.750 C 160.941 111.787, 160.941 110.213, 160.689 109.250 C 160.438 108.287, 160.232 109.075, 160.232 111 M 91 113.761 C 91 118.035, 90.662 118.843, 88.360 120.075 C 86.852 120.882, 84.893 123.420, 83.793 125.994 C 80.061 134.718, 74.291 138.372, 62.533 139.457 C 58.702 139.811, 55.403 140.264, 55.202 140.464 C 53.225 142.442, 67.600 153.859, 76.042 157.016 C 93.283 163.464, 113.261 160.181, 126.217 148.773 C 129.865 145.560, 129.907 145.440, 128.515 142.250 C 127.246 139.343, 126.643 138.987, 122.798 138.882 C 120.434 138.816, 117.938 138.836, 117.250 138.925 C 116.563 139.015, 116 138.667, 116 138.152 C 116 137.638, 114.910 136.943, 113.577 136.609 C 109.648 135.622, 105.413 131.388, 103.191 126.223 C 102.021 123.503, 100.023 120.815, 98.607 120.057 C 96.574 118.969, 96.041 117.840, 95.799 114.107 C 95.545 110.200, 95.158 109.451, 93.250 109.180 C 91.179 108.886, 91 109.251, 91 113.761 M 159.079 118.583 C 159.127 119.748, 159.364 119.985, 159.683 119.188 C 159.972 118.466, 159.936 117.603, 159.604 117.271 C 159.272 116.939, 159.036 117.529, 159.079 118.583 M 84.872 134.750 C 83.629 136.336, 83.664 136.371, 85.250 135.128 C 86.213 134.373, 87 133.585, 87 133.378 C 87 132.555, 86.179 133.084, 84.872 134.750" stroke="none" fill-rule="evenodd" fill="rgb(252,160,79)" fill-opacity="1"/></g>

  <!-- Bot Name -->
  <text x="150" y="75" font-family="'Segoe UI', Arial, sans-serif" font-size="28" font-weight="700" fill="rgb(182,90,9)">
    Fugu-Security
  </text>
  <text x="150" y="100" font-family="'Segoe UI', Arial, sans-serif" font-size="16" fill="#666">
    Statistiques
  </text>

  <!-- Stats Grid -->
  <!-- Semaine -->
  <rect x="40" y="140" width="160" height="100" fill="rgb(212,120,39)" fill-opacity="0.08" rx="10"/>
  <text x="60" y="165" font-family="'Segoe UI', Arial, sans-serif" font-size="14" font-weight="600" fill="rgb(212,120,39)">
    SEMAINE
  </text>
  <text x="60" y="195" font-family="'Segoe UI', Arial, sans-serif" font-size="24" font-weight="700" fill="rgb(182,90,9)">
    10
  </text>
  <text x="60" y="215" font-family="'Segoe UI', Arial, sans-serif" font-size="13" fill="#666">
    messages supprimés
  </text>

  <!-- Mois -->
  <rect x="220" y="140" width="160" height="100" fill="rgb(212,120,39)" fill-opacity="0.08" rx="10"/>
  <text x="240" y="165" font-family="'Segoe UI', Arial, sans-serif" font-size="14" font-weight="600" fill="rgb(212,120,39)">
    MOIS
  </text>
  <text x="240" y="195" font-family="'Segoe UI', Arial, sans-serif" font-size="24" font-weight="700" fill="rgb(182,90,9)">
    35
  </text>
  <text x="240" y="215" font-family="'Segoe UI', Arial, sans-serif" font-size="13" fill="#666">
    messages supprimés
  </text>

  <!-- Année -->
  <rect x="400" y="140" width="160" height="100" fill="rgb(212,120,39)" fill-opacity="0.08" rx="10"/>
  <text x="420" y="165" font-family="'Segoe UI', Arial, sans-serif" font-size="14" font-weight="600" fill="rgb(212,120,39)">
    ANNÉE
  </text>
  <text x="420" y="195" font-family="'Segoe UI', Arial, sans-serif" font-size="24" font-weight="700" fill="rgb(182,90,9)">
    35
  </text>
  <text x="420" y="215" font-family="'Segoe UI', Arial, sans-serif" font-size="13" fill="#666">
    messages supprimés
  </text>

  <!-- Total Bar -->
  <rect x="40" y="260" width="520" height="80" fill="rgb(212,120,39)" fill-opacity="0.12" rx="10"/>
  <text x="60" y="285" font-family="'Segoe UI', Arial, sans-serif" font-size="14" font-weight="600" fill="rgb(212,120,39)">
    TOTAL
  </text>
  <text x="60" y="315" font-family="'Segoe UI', Arial, sans-serif" font-size="20" font-weight="700" fill="rgb(182,90,9)">
    35 messages supprimés
  </text>

  <!-- Footer -->
  <text x="300" y="370" font-family="'Segoe UI', Arial, sans-serif" font-size="11" fill="#999" text-anchor="middle">
    Dernière mise à jour: 24/02/2026 13:00
  </text>
</svg>